<svg width="25" height="25" viewBox="0 0 25 25" fill="none" xmlns="http://www.w3.org/2000/svg">
<g clip-path="url(#clip0_1810_1237)">
<path d="M12.5001 25.0003C19.4038 25.0003 25.0003 19.4038 25.0003 12.5001C25.0003 5.59651 19.4038 0 12.5001 0C5.59651 0 0 5.59651 0 12.5001C0 19.4038 5.59651 25.0003 12.5001 25.0003Z" fill="#2E418E"/>
<path d="M12.5003 23.0202C18.3103 23.0202 23.0202 18.3103 23.0202 12.5003C23.0202 6.69037 18.3103 1.98047 12.5003 1.98047C6.69037 1.98047 1.98047 6.69037 1.98047 12.5003C1.98047 18.3103 6.69037 23.0202 12.5003 23.0202Z" fill="white"/>
<path d="M12.5005 19.2373C13.2731 19.2373 13.8994 18.611 13.8994 17.8384C13.8994 17.0658 13.2731 16.4395 12.5005 16.4395C11.7279 16.4395 11.1016 17.0658 11.1016 17.8384C11.1016 18.611 11.7279 19.2373 12.5005 19.2373Z" fill="#2E418E"/>
<path d="M12.6977 15.6129C12.6977 15.6129 14.6314 10.4764 14.6314 7.89285C14.6314 6.7163 13.6778 5.7627 12.5012 5.7627C11.3247 5.7627 10.3711 6.7163 10.3711 7.89285C10.3711 10.4764 12.3048 15.6129 12.3048 15.6129H12.6974H12.6977Z" fill="#2E418E"/>
</g>
<defs>
<clipPath id="clip0_1810_1237">
<rect width="25" height="25" fill="white"/>
</clipPath>
</defs>
</svg>
