<?xml version="1.0" encoding="utf-8"?>
<!-- Generator: Adobe Illustrator 23.0.4, SVG Export Plug-In . SVG Version: 6.00 Build 0)  -->
<svg version="1.1" id="Layer_1" xmlns="http://www.w3.org/2000/svg" xmlns:xlink="http://www.w3.org/1999/xlink" x="0px" y="0px"
	 viewBox="0 0 25 25" style="enable-background:new 0 0 25 25;" xml:space="preserve">
<style type="text/css">
	.st0{clip-path:url(#SVGID_2_);}
	.st1{fill:none;stroke:#2E418E;stroke-width:2;stroke-miterlimit:10;}
	.st2{fill:#2E418E;}
</style>
<g>
	<defs>
		<rect id="SVGID_1_" y="0" width="25" height="25"/>
	</defs>
	<clipPath id="SVGID_2_">
		<use xlink:href="#SVGID_1_"  style="overflow:visible;"/>
	</clipPath>
	<g class="st0">
		<path class="st1" d="M12.5,24C18.9,24,24,18.8,24,12.5C24,6.1,18.9,1,12.5,1C6.2,1,1,6.1,1,12.5C1,18.8,6.2,24,12.5,24z"/>
		<path class="st2" d="M12.5,19.2c0.8,0,1.4-0.6,1.4-1.4s-0.6-1.4-1.4-1.4s-1.4,0.6-1.4,1.4S11.7,19.2,12.5,19.2z"/>
		<path class="st2" d="M12.7,15.6c0,0,1.9-5.1,1.9-7.7c0-1.2-1-2.1-2.1-2.1c-1.2,0-2.1,1-2.1,2.1c0,2.6,1.9,7.7,1.9,7.7H12.7
			L12.7,15.6z"/>
	</g>
</g>
</svg>
