<svg width="16" height="16" viewBox="0 0 16 16" fill="none" xmlns="http://www.w3.org/2000/svg">
<path d="M12.6458 14.6668H3.3125C1.3125 14.6668 1.3125 13.7668 1.3125 12.6668V12.0002C1.3125 11.6335 1.6125 11.3335 1.97917 11.3335H13.9792C14.3458 11.3335 14.6458 11.6335 14.6458 12.0002V12.6668C14.6458 13.7668 14.6458 14.6668 12.6458 14.6668Z" stroke="#777672" stroke-linecap="round" stroke-linejoin="round"/>
<path d="M13.813 8.66683V11.3335H2.17969V8.66683C2.17969 6.10683 3.98635 3.96683 6.39302 3.4535C6.75302 3.3735 7.12635 3.3335 7.51302 3.3335H8.47969C8.86635 3.3335 9.24635 3.3735 9.60635 3.4535C12.013 3.9735 13.813 6.10683 13.813 8.66683Z" stroke="#777672" stroke-linecap="round" stroke-linejoin="round"/>
<path d="M9.66732 3.00016C9.66732 3.16016 9.64732 3.30683 9.60732 3.4535C9.24732 3.3735 8.86732 3.3335 8.48065 3.3335H7.51398C7.12732 3.3335 6.75398 3.3735 6.39398 3.4535C6.35398 3.30683 6.33398 3.16016 6.33398 3.00016C6.33398 2.08016 7.08065 1.3335 8.00065 1.3335C8.92065 1.3335 9.66732 2.08016 9.66732 3.00016Z" stroke="#777672" stroke-linecap="round" stroke-linejoin="round"/>
<path d="M10 7.3335H6" stroke="#777672" stroke-linecap="round" stroke-linejoin="round"/>
</svg>

