<svg width="172" height="164" viewBox="0 0 172 164" fill="none" xmlns="http://www.w3.org/2000/svg">
<ellipse cx="84.589" cy="93.4082" rx="66.589" ry="67" fill="#D5EAFB"/>
<circle cx="165.5" cy="32.9082" r="6.5" fill="#D5EAFB"/>
<circle cx="10.5" cy="10.748" r="10.5" fill="#D5EAFB"/>
<circle cx="5" cy="138.248" r="5" fill="#D5EAFB"/>
<circle cx="153.5" cy="160.748" r="2.5" fill="#D5EAFB"/>
<path d="M79.8745 111.711C78.4667 111.711 77.059 111.104 76.2546 109.89L64.9927 95.323C63.3839 93.2999 63.7861 90.4674 65.7972 88.8488C67.8082 87.2302 70.6237 87.6349 72.2325 89.6581L79.8745 99.5718L96.7675 77.519C98.3763 75.4958 101.192 75.0911 103.203 76.7097C105.214 78.3282 105.616 81.1607 104.007 83.1839L83.4944 109.89C82.4889 110.902 81.2823 111.711 79.8745 111.711Z" fill="#2E418E"/>
<circle cx="113.5" cy="104.371" r="2.5" fill="#2E418E"/>
<circle cx="48" cy="76.6934" r="4" fill="#2E418E"/>
<circle cx="106.5" cy="55.0762" r="1.5" fill="#2E418E"/>
<circle cx="65" cy="126.008" r="2" fill="#2E418E"/>
<circle cx="87" cy="77.7168" r="1" fill="#2E418E"/>
</svg>
