    <svg width="100" height="69" viewBox="0 0 100 69" fill="none" xmlns="http://www.w3.org/2000/svg">
<path d="M92.7954 0H7.20461C3.22622 0 0 3.22622 0 7.20461V61.0951C0 65.0735 3.22622 68.2997 7.20461 68.2997H92.7954C96.7738 68.2997 100 65.0735 100 61.0951V7.20461C100 3.22622 96.7738 0 92.7954 0ZM7.3487 38.0403C5.20029 38.0403 3.45821 36.2983 3.45821 34.1499C3.45821 32.0014 5.20029 30.2594 7.3487 30.2594C9.49712 30.2594 11.2392 32.0014 11.2392 34.1499C11.2392 36.2983 9.49712 38.0403 7.3487 38.0403ZM92.7954 61.1671H14.9856V7.13256H92.7954V61.1671Z" fill="#2E418E"/>
<path d="M31.6491 8.62109H17.8667C17.0709 8.62109 16.4258 9.26622 16.4258 10.062V31.2436C16.4258 32.0394 17.0709 32.6845 17.8667 32.6845H31.6491C32.4449 32.6845 33.09 32.0394 33.09 31.2436V10.062C33.09 9.26622 32.4449 8.62109 31.6491 8.62109Z" fill="#C4C4C5"/>
<path d="M51.0554 8.62109H37.273C36.4772 8.62109 35.832 9.26622 35.832 10.062V28.6499C35.832 29.4457 36.4772 30.0908 37.273 30.0908H51.0554C51.8512 30.0908 52.4963 29.4457 52.4963 28.6499V10.062C52.4963 9.26622 51.8512 8.62109 51.0554 8.62109Z" fill="#C4C4C5"/>
<path d="M70.4577 8.62109H56.6753C55.8795 8.62109 55.2344 9.26622 55.2344 10.062V34.7018C55.2344 35.4976 55.8795 36.1427 56.6753 36.1427H70.4577C71.2535 36.1427 71.8986 35.4976 71.8986 34.7018V10.062C71.8986 9.26622 71.2535 8.62109 70.4577 8.62109Z" fill="#C4C4C5"/>
<path d="M89.864 8.62109H76.0815C75.2857 8.62109 74.6406 9.26622 74.6406 10.062V29.3704C74.6406 30.1662 75.2857 30.8113 76.0815 30.8113H89.864C90.6598 30.8113 91.3049 30.1662 91.3049 29.3704V10.062C91.3049 9.26622 90.6598 8.62109 89.864 8.62109Z" fill="#C4C4C5"/>
</svg>
