<svg width="59" height="59" viewBox="0 0 59 59" fill="none" xmlns="http://www.w3.org/2000/svg">
<circle cx="29.5" cy="29.5" r="29.5" fill="#FF6010"/>
<path d="M29.5007 54.3271C43.2122 54.3271 54.3276 43.2117 54.3276 29.5002C54.3276 15.7887 43.2122 4.67334 29.5007 4.67334C15.7892 4.67334 4.67383 15.7887 4.67383 29.5002C4.67383 43.2117 15.7892 54.3271 29.5007 54.3271Z" fill="white"/>
<path d="M25.373 33.6272L33.6272 25.373" stroke="#FF6010" stroke-width="2.5" stroke-linecap="round" stroke-linejoin="round"/>
<path d="M33.6272 33.6272L25.373 25.373" stroke="#FF6010" stroke-width="2.5" stroke-linecap="round" stroke-linejoin="round"/>
<path d="M25.1253 44.0832H33.8753C41.167 44.0832 44.0837 41.1665 44.0837 33.8748V25.1248C44.0837 17.8332 41.167 14.9165 33.8753 14.9165H25.1253C17.8337 14.9165 14.917 17.8332 14.917 25.1248V33.8748C14.917 41.1665 17.8337 44.0832 25.1253 44.0832Z" stroke="#FF6010" stroke-width="2.5" stroke-linecap="round" stroke-linejoin="round"/>
</svg>
