<svg width="59" height="59" viewBox="0 0 59 59" fill="none" xmlns="http://www.w3.org/2000/svg">
<g clip-path="url(#clip0_1543_10900)">
<path d="M29.5003 59.0007C45.7929 59.0007 59.0007 45.7929 59.0007 29.5003C59.0007 13.2078 45.7929 0 29.5003 0C13.2078 0 0 13.2078 0 29.5003C0 45.7929 13.2078 59.0007 29.5003 59.0007Z" fill="#FF6010"/>
<path d="M29.5002 54.3276C43.2117 54.3276 54.3271 43.2122 54.3271 29.5007C54.3271 15.7892 43.2117 4.67383 29.5002 4.67383C15.7887 4.67383 4.67334 15.7892 4.67334 29.5007C4.67334 43.2122 15.7887 54.3276 29.5002 54.3276Z" fill="white"/>
<path d="M42.5 28.625V20.125C42.5 18.25 41.7 17.5 39.7125 17.5H34.6625C32.675 17.5 31.875 18.25 31.875 20.125V28.625C31.875 30.5 32.675 31.25 34.6625 31.25H39.7125C41.7 31.25 42.5 30.5 42.5 28.625Z" fill="#FF6010"/>
<path d="M42.5 39.875V37.625C42.5 35.75 41.7 35 39.7125 35H34.6625C32.675 35 31.875 35.75 31.875 37.625V39.875C31.875 41.75 32.675 42.5 34.6625 42.5H39.7125C41.7 42.5 42.5 41.75 42.5 39.875Z" fill="#FF6010"/>
<path d="M28.125 31.375V39.875C28.125 41.75 27.325 42.5 25.3375 42.5H20.2875C18.3 42.5 17.5 41.75 17.5 39.875V31.375C17.5 29.5 18.3 28.75 20.2875 28.75H25.3375C27.325 28.75 28.125 29.5 28.125 31.375Z" fill="#FF6010"/>
<path d="M28.125 20.125V22.375C28.125 24.25 27.325 25 25.3375 25H20.2875C18.3 25 17.5 24.25 17.5 22.375V20.125C17.5 18.25 18.3 17.5 20.2875 17.5H25.3375C27.325 17.5 28.125 18.25 28.125 20.125Z" fill="#FF6010"/>
</g>
<defs>
<clipPath id="clip0_1543_10900">
<rect width="59" height="59" fill="white"/>
</clipPath>
</defs>
</svg>
