<svg width="40" height="40" viewBox="0 0 40 40" fill="none" xmlns="http://www.w3.org/2000/svg">
<path d="M7.76268 25.1711C8.02662 25.7167 8.27502 26.2312 8.52564 26.7436C9.81647 29.4028 11.1095 32.0599 12.3959 34.7214C12.4624 34.8589 12.4979 35.0252 12.4979 35.1783C12.5068 36.3915 12.5024 37.6047 12.5024 38.8201C12.5024 38.8911 12.5024 38.9642 12.5024 39.0507H0C0.0443582 38.5517 0.0864985 38.0704 0.130857 37.5869C0.283892 35.9168 0.439146 34.2445 0.5944 32.5744C0.749654 30.8955 0.907125 29.2188 1.06238 27.5398C1.22429 25.7832 1.3374 24.0178 1.56141 22.2678C1.8076 20.3427 2.43748 18.5484 3.78597 17.0846C4.89271 15.8825 6.29665 15.257 7.90241 15.0663C9.24868 14.9066 10.5573 15.0419 11.7948 15.6341C13.1655 16.2906 14.2013 17.3197 14.9154 18.6393C15.4322 19.5952 15.8514 20.6044 16.2817 21.6047C17.2132 23.7649 18.1292 25.934 19.043 28.1009C19.1073 28.254 19.1871 28.3161 19.3579 28.3316C22.1325 28.6155 24.9071 28.8994 27.6795 29.2054C28.3604 29.2809 28.8994 29.6646 29.2187 30.2656C29.72 31.2104 29.7422 32.2018 29.2564 33.1555C28.8262 33.9983 28.0277 34.3066 27.1383 34.4175C26.8655 34.4508 26.5883 34.4575 26.3133 34.4575C23.1661 34.4597 20.0189 34.4331 16.8739 34.4708C15.1638 34.4907 14.015 33.71 13.2875 32.224C12.2917 30.1969 11.3091 28.163 10.3222 26.1314C10.1092 25.6945 9.90297 25.2531 9.68339 24.8184C9.65456 24.7608 9.55254 24.6876 9.50374 24.6987C8.93374 24.8428 8.36817 25.0025 7.76047 25.1688L7.76268 25.1711Z" fill="#79BF80"/>
<path d="M19.3266 23.7028C19.0006 22.9376 18.69 22.2102 18.3906 21.4805C18.3618 21.4117 18.3995 21.2986 18.4394 21.2232C19.2467 19.7106 20.0585 18.2024 20.8703 16.692C21.2894 15.9113 21.7153 15.135 22.1278 14.3499C22.3474 13.9329 22.6801 13.7444 23.1503 13.7444C27.6925 13.7488 32.2348 13.7488 36.7749 13.7444C37.3005 13.7444 37.6532 13.9773 37.8572 14.463C38.527 16.0643 39.2079 17.6612 39.8733 19.2648C39.9465 19.44 39.9886 19.644 39.9909 19.8326C39.9975 26.1625 39.9953 32.4924 39.9997 38.8223C39.9997 39.0086 39.9576 39.0729 39.7602 39.0729C31.738 39.0685 23.7136 39.0685 15.6914 39.0685C15.6271 39.0685 15.5628 39.0685 15.4785 39.0685V36.3693C15.8777 36.3937 16.2725 36.4381 16.6695 36.4381C19.9254 36.4447 23.1813 36.4403 26.4372 36.4425C27.3022 36.4425 28.1494 36.3294 28.9457 35.9723C30.5559 35.2515 31.3942 33.974 31.5428 32.2395C31.6449 31.0485 31.4297 29.9218 30.7156 28.9282C30.2587 28.2917 29.6532 27.8414 28.939 27.5309C28.8348 27.4844 28.7283 27.4422 28.6041 27.389C30.8043 23.501 32.9956 19.6307 35.2113 15.7117H34.8874C31.2323 15.7117 27.5772 15.7139 23.9221 15.705C23.7003 15.705 23.5916 15.776 23.4896 15.9645C22.1478 18.4752 20.7993 20.9837 19.4508 23.4899C19.4197 23.5476 19.3865 23.6008 19.3266 23.7006V23.7028Z" fill="#79BF80"/>
<path d="M21.6161 7.7383C21.6183 11.5198 18.5576 14.585 14.7849 14.5783C11.0278 14.5717 7.97373 11.5243 7.96486 7.76935C7.95599 4.00556 11.0078 0.94041 14.7761 0.929321C18.5421 0.918231 21.6117 3.97673 21.6161 7.7383Z" fill="#79BF80"/>
</svg>
