<svg width="46" height="44" viewBox="0 0 46 44" fill="none" xmlns="http://www.w3.org/2000/svg">
<path d="M9.20465 27.8305C9.5022 28.4456 9.78225 29.0257 10.0648 29.6033C11.5201 32.6013 12.9778 35.5968 14.4281 38.5973C14.5031 38.7524 14.5431 38.9399 14.5431 39.1124C14.5531 40.4802 14.5481 41.8479 14.5481 43.2181C14.5481 43.2982 14.5481 43.3807 14.5481 43.4782H0.453125C0.503134 42.9156 0.550642 42.373 0.600651 41.8279C0.773181 39.9451 0.948211 38.0597 1.12324 36.1769C1.29827 34.2841 1.4758 32.3938 1.65083 30.5009C1.83337 28.5206 1.96089 26.5302 2.21343 24.5574C2.49098 22.387 3.2011 20.3642 4.72137 18.7139C5.96909 17.3586 7.55186 16.6535 9.36218 16.4385C10.8799 16.2584 12.3552 16.411 13.7504 17.0786C15.2957 17.8187 16.4634 18.9789 17.2686 20.4667C17.8512 21.5444 18.3237 22.6821 18.8088 23.8098C19.859 26.2452 20.8917 28.6906 21.9219 31.1335C21.9944 31.3061 22.0844 31.3761 22.2769 31.3936C25.405 31.7136 28.533 32.0337 31.6586 32.3788C32.4262 32.4638 33.0338 32.8964 33.3939 33.574C33.959 34.6392 33.984 35.7568 33.4364 36.832C32.9513 37.7822 32.0511 38.1298 31.0485 38.2548C30.7409 38.2923 30.4284 38.2998 30.1183 38.2998C26.5702 38.3023 23.0221 38.2723 19.4764 38.3148C17.5486 38.3373 16.2534 37.4571 15.4332 35.7819C14.3105 33.4965 13.2029 31.2036 12.0902 28.9132C11.8501 28.4206 11.6176 27.923 11.37 27.4329C11.3375 27.3679 11.2225 27.2854 11.1675 27.2979C10.5249 27.4604 9.88727 27.6404 9.20215 27.828L9.20465 27.8305Z" fill="#2E418E"/>
<path d="M22.2406 26.1752C21.873 25.3125 21.523 24.4924 21.1854 23.6698C21.1529 23.5923 21.1954 23.4647 21.2404 23.3797C22.1506 21.6744 23.0657 19.9741 23.9809 18.2713C24.4535 17.3912 24.9336 16.516 25.3987 15.6309C25.6462 15.1608 26.0213 14.9482 26.5514 14.9482C31.6722 14.9532 36.7931 14.9532 41.9115 14.9482C42.5041 14.9482 42.9017 15.2108 43.1317 15.7584C43.8869 17.5637 44.6545 19.364 45.4046 21.1718C45.4872 21.3694 45.5347 21.5994 45.5372 21.8119C45.5447 28.9482 45.5422 36.0844 45.5472 43.2207C45.5472 43.4307 45.4997 43.5032 45.2771 43.5032C36.233 43.4982 27.1865 43.4982 18.1424 43.4982C18.0699 43.4982 17.9974 43.4982 17.9023 43.4982V40.4552C18.3524 40.4827 18.7975 40.5327 19.2451 40.5327C22.9157 40.5402 26.5864 40.5352 30.257 40.5377C31.2322 40.5377 32.1873 40.4102 33.085 40.0076C34.9003 39.195 35.8455 37.7547 36.013 35.7994C36.128 34.4566 35.8855 33.1864 35.0803 32.0662C34.5653 31.3486 33.8826 30.841 33.0775 30.491C32.96 30.4384 32.84 30.3909 32.6999 30.3309C35.1804 25.9477 37.6508 21.5844 40.1487 17.1661H39.7837C35.6629 17.1661 31.5422 17.1686 27.4215 17.1586C27.1715 17.1586 27.0489 17.2386 26.9339 17.4512C25.4212 20.2817 23.9009 23.1097 22.3806 25.9352C22.3456 26.0002 22.3081 26.0602 22.2406 26.1727V26.1752Z" fill="#2E418E"/>
<path d="M24.8238 8.17686C24.8263 12.4401 21.3757 15.8957 17.1225 15.8882C12.8867 15.8807 9.44362 12.4451 9.43362 8.21187C9.42361 3.96863 12.8642 0.513024 17.1125 0.500522C21.3582 0.48802 24.8188 3.93612 24.8238 8.17686Z" fill="#2E418E"/>
</svg>
