<svg width="59" height="59" viewBox="0 0 59 59" fill="none" xmlns="http://www.w3.org/2000/svg">
<g clip-path="url(#clip0_1463_33484)">
<path d="M29.5003 59.0007C45.7929 59.0007 59.0007 45.7929 59.0007 29.5003C59.0007 13.2078 45.7929 0 29.5003 0C13.2078 0 0 13.2078 0 29.5003C0 45.7929 13.2078 59.0007 29.5003 59.0007Z" fill="#FF6010"/>
<path d="M29.5007 54.3271C43.2122 54.3271 54.3276 43.2117 54.3276 29.5002C54.3276 15.7887 43.2122 4.67334 29.5007 4.67334C15.7892 4.67334 4.67383 15.7887 4.67383 29.5002C4.67383 43.2117 15.7892 54.3271 29.5007 54.3271Z" fill="white"/>
<path d="M29.5006 45.3997C31.324 45.3997 32.8021 43.9216 32.8021 42.0983C32.8021 40.275 31.324 38.7969 29.5006 38.7969C27.6773 38.7969 26.1992 40.275 26.1992 42.0983C26.1992 43.9216 27.6773 45.3997 29.5006 45.3997Z" fill="#FF6010"/>
<path d="M29.9635 36.8465C29.9635 36.8465 34.527 24.7243 34.527 18.6273C34.527 15.8506 32.2765 13.6001 29.4998 13.6001C26.7232 13.6001 24.4727 15.8506 24.4727 18.6273C24.4727 24.7243 29.0361 36.8465 29.0361 36.8465H29.9628H29.9635Z" fill="#FF6010"/>
</g>
<defs>
<clipPath id="clip0_1463_33484">
<rect width="59" height="59" fill="white"/>
</clipPath>
</defs>
</svg>
