<svg width="100" height="100" viewBox="0 0 100 100" fill="none" xmlns="http://www.w3.org/2000/svg">
<rect width="100" height="100" fill="#F5F5F5"/>
<g clip-path="url(#clip0_968_21243)">
<rect width="1440" height="872" transform="translate(-670 -285)" fill="white"/>
<g clip-path="url(#clip1_968_21243)">
<rect x="-670" y="-285" width="1440" height="960" rx="16" fill="white"/>
<g clip-path="url(#clip2_968_21243)">
<g filter="url(#filter0_d_968_21243)">
<g clip-path="url(#clip3_968_21243)">
<rect x="-293.167" y="-265" width="329" height="376" rx="16" fill="#F8F8F8"/>
<rect x="-283.167" y="17" width="300" height="2" fill="#2E418E"/>
</g>
</g>
<g filter="url(#filter1_d_968_21243)">
<g clip-path="url(#clip4_968_21243)">
<rect x="64.167" y="-265" width="329" height="660" rx="16" fill="#F8F8F8"/>
<path d="M97.943 6.22C96.711 6.22 95.523 5.978 94.379 5.494C93.235 5.01 92.223 4.328 91.343 3.448L92.751 1.82C93.587 2.64133 94.4377 3.25 95.303 3.646C96.183 4.042 97.0997 4.24 98.053 4.24C98.801 4.24 99.4537 4.13733 100.011 3.932C100.583 3.712 101.023 3.404 101.331 3.008C101.639 2.612 101.793 2.16467 101.793 1.666C101.793 0.976666 101.551 0.448666 101.067 0.0819995C100.583 -0.284667 99.7837 -0.563333 98.669 -0.754L96.095 -1.172C94.687 -1.42133 93.631 -1.876 92.927 -2.536C92.2377 -3.196 91.893 -4.076 91.893 -5.176C91.893 -6.056 92.1277 -6.826 92.597 -7.486C93.0663 -8.16067 93.7263 -8.68133 94.577 -9.048C95.4423 -9.41467 96.4397 -9.598 97.569 -9.598C98.6837 -9.598 99.7763 -9.41467 100.847 -9.048C101.932 -8.696 102.908 -8.18267 103.773 -7.508L102.497 -5.748C100.84 -7.00933 99.1603 -7.64 97.459 -7.64C96.7843 -7.64 96.1977 -7.54467 95.699 -7.354C95.2003 -7.16333 94.8117 -6.892 94.533 -6.54C94.2543 -6.20267 94.115 -5.80667 94.115 -5.352C94.115 -4.72133 94.3277 -4.23733 94.753 -3.9C95.1783 -3.57733 95.8823 -3.34267 96.865 -3.196L99.351 -2.778C100.979 -2.514 102.174 -2.03733 102.937 -1.348C103.7 -0.658667 104.081 0.287333 104.081 1.49C104.081 2.42867 103.824 3.25733 103.311 3.976C102.798 4.68 102.079 5.23 101.155 5.626C100.231 6.022 99.1603 6.22 97.943 6.22ZM105.957 6V-5.198H108.157V6H105.957ZM107.057 -7.002C106.691 -7.002 106.375 -7.134 106.111 -7.398C105.847 -7.67667 105.715 -7.99933 105.715 -8.366C105.715 -8.74733 105.847 -9.06267 106.111 -9.312C106.375 -9.576 106.691 -9.708 107.057 -9.708C107.439 -9.708 107.761 -9.576 108.025 -9.312C108.289 -9.06267 108.421 -8.74733 108.421 -8.366C108.421 -7.99933 108.289 -7.67667 108.025 -7.398C107.761 -7.134 107.439 -7.002 107.057 -7.002ZM110.748 6V-5.198H112.948V-4.054C113.814 -4.96333 114.936 -5.418 116.314 -5.418C117.18 -5.418 117.935 -5.23467 118.58 -4.868C119.24 -4.50133 119.754 -3.988 120.12 -3.328C120.502 -2.668 120.692 -1.90533 120.692 -1.04V6H118.492V-0.666C118.492 -1.546 118.243 -2.23533 117.744 -2.734C117.26 -3.24733 116.578 -3.504 115.698 -3.504C115.112 -3.504 114.584 -3.37933 114.114 -3.13C113.645 -2.88067 113.256 -2.52133 112.948 -2.052V6H110.748ZM132.624 6.198C131.539 6.198 130.71 5.94867 130.138 5.45C129.566 4.93667 129.28 4.196 129.28 3.228V-3.35H126.904V-5.198H129.28V-8.058L131.458 -8.586V-5.198H134.758V-3.35H131.458V2.722C131.458 3.294 131.583 3.70467 131.832 3.954C132.096 4.18867 132.522 4.306 133.108 4.306C133.416 4.306 133.688 4.284 133.922 4.24C134.172 4.196 134.436 4.13 134.714 4.042V5.89C134.421 5.99267 134.076 6.066 133.68 6.11C133.299 6.16867 132.947 6.198 132.624 6.198ZM139.921 6.198C139.114 6.198 138.403 6.05867 137.787 5.78C137.171 5.48667 136.687 5.08333 136.335 4.57C135.983 4.05667 135.807 3.46267 135.807 2.788C135.807 1.732 136.21 0.903333 137.017 0.302C137.824 -0.314 138.931 -0.622001 140.339 -0.622001C141.439 -0.622001 142.458 -0.409334 143.397 0.0159997V-1.172C143.397 -1.97867 143.162 -2.58 142.693 -2.976C142.238 -3.372 141.564 -3.57 140.669 -3.57C140.156 -3.57 139.62 -3.48933 139.063 -3.328C138.506 -3.18133 137.882 -2.94667 137.193 -2.624L136.379 -4.274C137.23 -4.67 138.022 -4.956 138.755 -5.132C139.488 -5.32267 140.229 -5.418 140.977 -5.418C142.429 -5.418 143.551 -5.07333 144.343 -4.384C145.15 -3.69467 145.553 -2.712 145.553 -1.436V6H143.397V5.032C142.898 5.428 142.363 5.72133 141.791 5.912C141.219 6.10267 140.596 6.198 139.921 6.198ZM137.919 2.744C137.919 3.28667 138.146 3.72667 138.601 4.064C139.07 4.40133 139.679 4.57 140.427 4.57C141.014 4.57 141.549 4.482 142.033 4.306C142.532 4.13 142.986 3.85867 143.397 3.492V1.6C142.972 1.35067 142.524 1.17467 142.055 1.072C141.6 0.954666 141.087 0.896 140.515 0.896C139.708 0.896 139.07 1.06467 138.601 1.402C138.146 1.72467 137.919 2.172 137.919 2.744ZM148.088 10.488V-5.198H150.266V-4.12C151.205 -4.956 152.349 -5.374 153.698 -5.374C154.754 -5.374 155.707 -5.11733 156.558 -4.604C157.423 -4.09067 158.105 -3.40133 158.604 -2.536C159.103 -1.67067 159.352 -0.695334 159.352 0.389999C159.352 1.47533 159.095 2.458 158.582 3.338C158.083 4.20333 157.401 4.89267 156.536 5.406C155.685 5.91933 154.725 6.176 153.654 6.176C153.038 6.176 152.444 6.08067 151.872 5.89C151.3 5.68467 150.772 5.39867 150.288 5.032V10.488H148.088ZM153.412 4.262C154.131 4.262 154.769 4.09333 155.326 3.756C155.898 3.41867 156.353 2.964 156.69 2.392C157.027 1.80533 157.196 1.14533 157.196 0.412C157.196 -0.321334 157.027 -0.981334 156.69 -1.568C156.353 -2.15467 155.898 -2.61667 155.326 -2.954C154.769 -3.29133 154.131 -3.46 153.412 -3.46C152.781 -3.46 152.195 -3.34267 151.652 -3.108C151.109 -2.87333 150.655 -2.54333 150.288 -2.118V2.942C150.655 3.35267 151.109 3.67533 151.652 3.91C152.209 4.14467 152.796 4.262 153.412 4.262ZM165.101 6.198C164.294 6.198 163.583 6.05867 162.967 5.78C162.351 5.48667 161.867 5.08333 161.515 4.57C161.163 4.05667 160.987 3.46267 160.987 2.788C160.987 1.732 161.39 0.903333 162.197 0.302C163.003 -0.314 164.111 -0.622001 165.519 -0.622001C166.619 -0.622001 167.638 -0.409334 168.577 0.0159997V-1.172C168.577 -1.97867 168.342 -2.58 167.873 -2.976C167.418 -3.372 166.743 -3.57 165.849 -3.57C165.335 -3.57 164.8 -3.48933 164.243 -3.328C163.685 -3.18133 163.062 -2.94667 162.373 -2.624L161.559 -4.274C162.409 -4.67 163.201 -4.956 163.935 -5.132C164.668 -5.32267 165.409 -5.418 166.157 -5.418C167.609 -5.418 168.731 -5.07333 169.523 -4.384C170.329 -3.69467 170.733 -2.712 170.733 -1.436V6H168.577V5.032C168.078 5.428 167.543 5.72133 166.971 5.912C166.399 6.10267 165.775 6.198 165.101 6.198ZM163.099 2.744C163.099 3.28667 163.326 3.72667 163.781 4.064C164.25 4.40133 164.859 4.57 165.607 4.57C166.193 4.57 166.729 4.482 167.213 4.306C167.711 4.13 168.166 3.85867 168.577 3.492V1.6C168.151 1.35067 167.704 1.17467 167.235 1.072C166.78 0.954666 166.267 0.896 165.695 0.896C164.888 0.896 164.25 1.06467 163.781 1.402C163.326 1.72467 163.099 2.172 163.099 2.744Z" fill="#2E418E"/>
<rect x="74.667" y="17" width="300" height="1" fill="#2E418E"/>
<rect x="74.667" y="89" width="300" height="2" fill="#2E418E"/>
</g>
</g>
</g>
</g>
<rect x="-670" y="-285" width="1440" height="875" fill="black" fill-opacity="0.7"/>
<rect x="-200" y="-115" width="500" height="532" rx="16" fill="#F3726C"/>
<g clip-path="url(#clip5_968_21243)">
<path d="M50.0006 100.001C77.6151 100.001 100.001 77.6151 100.001 50.0006C100.001 22.386 77.6151 0 50.0006 0C22.386 0 0 22.386 0 50.0006C0 77.6151 22.386 100.001 50.0006 100.001Z" fill="white"/>
<path d="M50.0004 92.0801C73.2402 92.0801 92.0798 73.2405 92.0798 50.0006C92.0798 26.7608 73.2402 7.92114 50.0004 7.92114C26.7605 7.92114 7.9209 26.7608 7.9209 50.0006C7.9209 73.2405 26.7605 92.0801 50.0004 92.0801Z" fill="#F3726C"/>
<path d="M49.9999 76.9488C53.0903 76.9488 55.5956 74.4436 55.5956 71.3532C55.5956 68.2628 53.0903 65.7576 49.9999 65.7576C46.9095 65.7576 44.4043 68.2628 44.4043 71.3532C44.4043 74.4436 46.9095 76.9488 49.9999 76.9488Z" fill="white"/>
<path d="M50.785 62.4518C50.785 62.4518 58.5197 41.9057 58.5197 31.5716C58.5197 26.8654 54.7053 23.051 49.9991 23.051C45.2929 23.051 41.4785 26.8654 41.4785 31.5716C41.4785 41.9057 49.2132 62.4518 49.2132 62.4518H50.7839H50.785Z" fill="white"/>
</g>
</g>
<defs>
<filter id="filter0_d_968_21243" x="-297.167" y="-265" width="337" height="384" filterUnits="userSpaceOnUse" color-interpolation-filters="sRGB">
<feFlood flood-opacity="0" result="BackgroundImageFix"/>
<feColorMatrix in="SourceAlpha" type="matrix" values="0 0 0 0 0 0 0 0 0 0 0 0 0 0 0 0 0 0 127 0" result="hardAlpha"/>
<feOffset dy="4"/>
<feGaussianBlur stdDeviation="2"/>
<feComposite in2="hardAlpha" operator="out"/>
<feColorMatrix type="matrix" values="0 0 0 0 0 0 0 0 0 0 0 0 0 0 0 0 0 0 0.25 0"/>
<feBlend mode="normal" in2="BackgroundImageFix" result="effect1_dropShadow_968_21243"/>
<feBlend mode="normal" in="SourceGraphic" in2="effect1_dropShadow_968_21243" result="shape"/>
</filter>
<filter id="filter1_d_968_21243" x="60.167" y="-265" width="337" height="668" filterUnits="userSpaceOnUse" color-interpolation-filters="sRGB">
<feFlood flood-opacity="0" result="BackgroundImageFix"/>
<feColorMatrix in="SourceAlpha" type="matrix" values="0 0 0 0 0 0 0 0 0 0 0 0 0 0 0 0 0 0 127 0" result="hardAlpha"/>
<feOffset dy="4"/>
<feGaussianBlur stdDeviation="2"/>
<feComposite in2="hardAlpha" operator="out"/>
<feColorMatrix type="matrix" values="0 0 0 0 0 0 0 0 0 0 0 0 0 0 0 0 0 0 0.25 0"/>
<feBlend mode="normal" in2="BackgroundImageFix" result="effect1_dropShadow_968_21243"/>
<feBlend mode="normal" in="SourceGraphic" in2="effect1_dropShadow_968_21243" result="shape"/>
</filter>
<clipPath id="clip0_968_21243">
<rect width="1440" height="872" fill="white" transform="translate(-670 -285)"/>
</clipPath>
<clipPath id="clip1_968_21243">
<rect x="-670" y="-285" width="1440" height="960" rx="16" fill="white"/>
</clipPath>
<clipPath id="clip2_968_21243">
<rect width="1441" height="920" fill="white" transform="translate(-670.5 -265)"/>
</clipPath>
<clipPath id="clip3_968_21243">
<rect x="-293.167" y="-265" width="329" height="376" rx="16" fill="white"/>
</clipPath>
<clipPath id="clip4_968_21243">
<rect x="64.167" y="-265" width="329" height="660" rx="16" fill="white"/>
</clipPath>
<clipPath id="clip5_968_21243">
<rect width="100" height="100" fill="white"/>
</clipPath>
</defs>
</svg>
