<svg width="100" height="69" viewBox="0 0 100 69" fill="none" xmlns="http://www.w3.org/2000/svg">
<path d="M92.7954 0H7.20461C3.22622 0 0 3.22915 0 7.21114V61.1504C0 65.1324 3.22622 68.3616 7.20461 68.3616H92.7954C96.7738 68.3616 100 65.1324 100 61.1504V7.21114C100 3.22915 96.7738 0 92.7954 0ZM7.3487 38.0748C5.20029 38.0748 3.45821 36.3312 3.45821 34.1808C3.45821 32.0304 5.20029 30.2868 7.3487 30.2868C9.49712 30.2868 11.2392 32.0304 11.2392 34.1808C11.2392 36.3312 9.49712 38.0748 7.3487 38.0748ZM92.7954 61.2226H14.9856V7.13903H92.7954V61.2226Z" fill="#2E418E"/>
<path d="M31.6491 8.62891H17.8667C17.0709 8.62891 16.4258 9.27461 16.4258 10.0711V31.2719C16.4258 32.0684 17.0709 32.7141 17.8667 32.7141H31.6491C32.4449 32.7141 33.09 32.0684 33.09 31.2719V10.0711C33.09 9.27461 32.4449 8.62891 31.6491 8.62891Z" fill="#C4C4C5"/>
<path d="M51.0554 8.62891H37.273C36.4772 8.62891 35.832 9.27461 35.832 10.0711V28.6759C35.832 29.4724 36.4772 30.1181 37.273 30.1181H51.0554C51.8512 30.1181 52.4963 29.4724 52.4963 28.6759V10.0711C52.4963 9.27461 51.8512 8.62891 51.0554 8.62891Z" fill="#C4C4C5"/>
<path d="M70.4577 8.62891H56.6753C55.8795 8.62891 55.2344 9.27461 55.2344 10.0711V34.7332C55.2344 35.5297 55.8795 36.1754 56.6753 36.1754H70.4577C71.2535 36.1754 71.8986 35.5297 71.8986 34.7332V10.0711C71.8986 9.27461 71.2535 8.62891 70.4577 8.62891Z" fill="#C4C4C5"/>
<path d="M89.864 8.62891H76.0815C75.2857 8.62891 74.6406 9.27461 74.6406 10.0711V29.397C74.6406 30.1935 75.2857 30.8392 76.0815 30.8392H89.864C90.6598 30.8392 91.3049 30.1935 91.3049 29.397V10.0711C91.3049 9.27461 90.6598 8.62891 89.864 8.62891Z" fill="#C4C4C5"/>
<path d="M31.6491 37.9061H17.8667C17.0709 37.9061 16.4258 38.5518 16.4258 39.3484V58.3382C16.4258 59.1347 17.0709 59.7804 17.8667 59.7804H31.6491C32.4449 59.7804 33.09 59.1347 33.09 58.3382V39.3484C33.09 38.5518 32.4449 37.9061 31.6491 37.9061Z" fill="#C4C4C5"/>
<path d="M51.0554 37.9061H37.273C36.4772 37.9061 35.832 38.5518 35.832 39.3484V58.3382C35.832 59.1347 36.4772 59.7804 37.273 59.7804H51.0554C51.8512 59.7804 52.4963 59.1347 52.4963 58.3382V39.3484C52.4963 38.5518 51.8512 37.9061 51.0554 37.9061Z" fill="#C4C4C5"/>
<path d="M70.4577 37.9061H56.6753C55.8795 37.9061 55.2344 38.5518 55.2344 39.3484V58.3382C55.2344 59.1347 55.8795 59.7804 56.6753 59.7804H70.4577C71.2535 59.7804 71.8986 59.1347 71.8986 58.3382V39.3484C71.8986 38.5518 71.2535 37.9061 70.4577 37.9061Z" fill="#C4C4C5"/>
<path d="M89.864 37.9061H76.0815C75.2857 37.9061 74.6406 38.5518 74.6406 39.3484V58.3382C74.6406 59.1347 75.2857 59.7804 76.0815 59.7804H89.864C90.6598 59.7804 91.3049 59.1347 91.3049 58.3382V39.3484C91.3049 38.5518 90.6598 37.9061 89.864 37.9061Z" fill="#C4C4C5"/>
</svg>
