<svg width="61" height="43" viewBox="0 0 61 43" fill="none" xmlns="http://www.w3.org/2000/svg">
<path d="M56.6052 0H4.39481C1.968 0 0 2.03116 0 4.53586V38.4641C0 40.9688 1.968 43 4.39481 43H56.6052C59.032 43 61 40.9688 61 38.4641V4.53586C61 2.03116 59.032 0 56.6052 0ZM4.48271 23.9494C3.17218 23.9494 2.10951 22.8526 2.10951 21.5C2.10951 20.1474 3.17218 19.0506 4.48271 19.0506C5.79324 19.0506 6.85591 20.1474 6.85591 21.5C6.85591 22.8526 5.79324 23.9494 4.48271 23.9494ZM56.6052 38.5095H9.14121V4.49051H56.6052V38.5095Z" fill="#2E418E"/>
<path d="M19.3058 5.42773H10.8985C10.4131 5.42773 10.0195 5.83389 10.0195 6.33491V19.6703C10.0195 20.1714 10.4131 20.5775 10.8985 20.5775H19.3058C19.7912 20.5775 20.1847 20.1714 20.1847 19.6703V6.33491C20.1847 5.83389 19.7912 5.42773 19.3058 5.42773Z" fill="#2E418E"/>
<path d="M31.1417 5.42773H22.7344C22.249 5.42773 21.8555 5.83389 21.8555 6.33491V18.0374C21.8555 18.5385 22.249 18.9446 22.7344 18.9446H31.1417C31.6271 18.9446 32.0207 18.5385 32.0207 18.0374V6.33491C32.0207 5.83389 31.6271 5.42773 31.1417 5.42773Z" fill="#2E418E"/>
<path d="M42.9776 5.42773H34.5704C34.0849 5.42773 33.6914 5.83389 33.6914 6.33491V21.8476C33.6914 22.3486 34.0849 22.7547 34.5704 22.7547H42.9776C43.4631 22.7547 43.8566 22.3486 43.8566 21.8476V6.33491C43.8566 5.83389 43.4631 5.42773 42.9776 5.42773Z" fill="#2E418E"/>
<path d="M54.8175 5.42773H46.4102C45.9248 5.42773 45.5312 5.83389 45.5312 6.33491V18.491C45.5312 18.992 45.9248 19.3982 46.4102 19.3982H54.8175C55.3029 19.3982 55.6965 18.992 55.6965 18.491V6.33491C55.6965 5.83389 55.3029 5.42773 54.8175 5.42773Z" fill="#2E418E"/>
<path d="M19.3058 23.8433H10.8985C10.4131 23.8433 10.0195 24.2494 10.0195 24.7504V36.6952C10.0195 37.1962 10.4131 37.6024 10.8985 37.6024H19.3058C19.7912 37.6024 20.1847 37.1962 20.1847 36.6952V24.7504C20.1847 24.2494 19.7912 23.8433 19.3058 23.8433Z" fill="#2E418E"/>
<path d="M31.1417 23.8433H22.7344C22.249 23.8433 21.8555 24.2494 21.8555 24.7504V36.6952C21.8555 37.1962 22.249 37.6024 22.7344 37.6024H31.1417C31.6271 37.6024 32.0207 37.1962 32.0207 36.6952V24.7504C32.0207 24.2494 31.6271 23.8433 31.1417 23.8433Z" fill="#2E418E"/>
<path d="M42.9776 23.8433H34.5704C34.0849 23.8433 33.6914 24.2494 33.6914 24.7504V36.6952C33.6914 37.1962 34.0849 37.6024 34.5704 37.6024H42.9776C43.4631 37.6024 43.8566 37.1962 43.8566 36.6952V24.7504C43.8566 24.2494 43.4631 23.8433 42.9776 23.8433Z" fill="#2E418E"/>
<path d="M54.8175 23.8433H46.4102C45.9248 23.8433 45.5312 24.2494 45.5312 24.7504V36.6952C45.5312 37.1962 45.9248 37.6024 46.4102 37.6024H54.8175C55.3029 37.6024 55.6965 37.1962 55.6965 36.6952V24.7504C55.6965 24.2494 55.3029 23.8433 54.8175 23.8433Z" fill="#2E418E"/>
</svg>
