<svg width="26" height="26" viewBox="0 0 26 26" fill="none" xmlns="http://www.w3.org/2000/svg">
<path d="M13.0001 26.0003C20.1799 26.0003 26.0003 20.1799 26.0003 13.0001C26.0003 5.82036 20.1799 0 13.0001 0C5.82036 0 0 5.82036 0 13.0001C0 20.1799 5.82036 26.0003 13.0001 26.0003Z" fill="#F2B45D"/>
<path d="M12.9993 23.9409C19.0416 23.9409 23.9399 19.0426 23.9399 13.0002C23.9399 6.95787 19.0416 2.05957 12.9993 2.05957C6.95689 2.05957 2.05859 6.95787 2.05859 13.0002C2.05859 19.0426 6.95689 23.9409 12.9993 23.9409Z" fill="#F2B45D"/>
<path d="M13.0017 20.0067C13.8052 20.0067 14.4566 19.3553 14.4566 18.5518C14.4566 17.7483 13.8052 17.0969 13.0017 17.0969C12.1982 17.0969 11.5469 17.7483 11.5469 18.5518C11.5469 19.3553 12.1982 20.0067 13.0017 20.0067Z" fill="white"/>
<path d="M13.2048 16.2374C13.2048 16.2374 15.2159 10.8954 15.2159 8.20852C15.2159 6.98491 14.2241 5.99316 13.0005 5.99316C11.7769 5.99316 10.7852 6.98491 10.7852 8.20852C10.7852 10.8954 12.7962 16.2374 12.7962 16.2374H13.2045H13.2048Z" fill="white"/>
</svg>
